# xmcd
#
# Track frame offsets:
#	150
#	21172
#	45462
#	91775
#	130582
#	142650
#	166170
#	197937
#	211892
#	235160
#	267225
#	295992
#
# Disc length: 4100 seconds
#
# Revision: 1
# Processed by: cddbd v1.5.1PL0 Copyright (c) Steve Scherf et al.
# Submitted via: CDex 1.50Beta5
#
DISCID=9d10020c
DTITLE=ハリー・アレン - ジャズ・バラード
DYEAR=1998
DGENRE=Jazz
TTITLE0=ハリー・アレン/虹の彼方に
TTITLE1=ジャズ・ネットワークス/煙が目にしみる
TTITLE2=チェット・ベイカー/ラウンド・ミッドナイト
TTITLE3=スーパー・ジャズ・トリオ/枯葉
TTITLE4=ジャンゴ・ラインハルト/ティアーズ
TTITLE5=ソニー・ロリンズ/ホエア・アー・ユー
TTITLE6=ジャズ・ネットワークス/アイ・リメンバー・クリフォード
TTITLE7=コールマン・ホーキンス/身も心も
TTITLE8=ケニー・ドリュー/ユー・ドント・ノウ・ホワット・ラブ・イズ
TTITLE9=ポール・デスモンド/イージー・リビング
TTITLE10=ジャズ・ネットワークス/マイ・アイデアル
TTITLE11=ジョン・ピザレリ/イン・ザ・ウィー・スモール・アワーズ
EXTD=
EXTT0=
EXTT1=
EXTT2=
EXTT3=
EXTT4=
EXTT5=
EXTT6=
EXTT7=
EXTT8=
EXTT9=
EXTT10=
EXTT11=
PLAYORDER=
